<svg width="16" height="15" viewBox="0 0 16 15" fill="none" xmlns="http://www.w3.org/2000/svg">
<path d="M0.893073 11.6053C0.258884 12.2978 -0.0181182 13.1142 0.397385 14.0181L15.0931 14.1785C15.5159 13.4277 15.4648 12.6659 14.9582 11.988C14.6448 11.5652 14.2839 11.1205 13.8393 10.8654C12.775 10.2567 11.6634 9.71365 10.5371 9.21796C9.75349 8.87171 9.64051 8.62386 10.1945 7.95687C11.0875 6.88531 11.5358 5.66796 11.4301 4.26108C11.2843 2.30749 10.0414 0.958923 8.17531 0.732948C6.41854 0.521551 4.84764 1.54937 4.34102 3.29157C3.85991 4.94994 4.20616 6.45887 5.26679 7.81108C5.98116 8.72227 5.92285 8.89358 4.79662 9.28721C3.34235 9.79748 1.95734 10.4426 0.893073 11.6053Z" fill="#181818"/>
</svg>
