<svg width="32" height="26" viewBox="0 0 32 26" fill="none" xmlns="http://www.w3.org/2000/svg">
<path d="M30.6867 6.4234L31.7704 5.71665C32.0414 5.53676 32.0414 5.15126 31.7704 4.97136L30.6867 4.27747C26.4423 1.5276 21.4883 0.0755611 16.431 0.0755608L0.833633 0.0755602L0.833633 10.6253L16.431 10.6253C21.4883 10.6253 26.4423 9.16042 30.6867 6.4234Z" fill="white"/>
<path d="M30.6867 20.8737L31.7704 20.1669C32.0414 19.987 32.0414 19.6015 31.7704 19.4216L30.6867 18.7277C26.4423 15.9779 21.4883 14.5258 16.431 14.5258L0.833633 14.5258L0.833633 25.0756L16.431 25.0756C21.4883 25.0756 26.4423 23.6107 30.6867 20.8737Z" fill="white"/>
</svg>
