<svg width="40" height="24" viewBox="0 0 40 24" fill="none" xmlns="http://www.w3.org/2000/svg">
<path d="M12.7627 21.5C10.9034 21.5 7.77074 21.5 5.79688 21.5C3.17355 21.5 1.04687 17.2466 1.04687 12C1.04687 6.75335 3.17355 2.5 5.79688 2.5C7.59245 2.5 9.51537 2.5 12.7627 2.5" fill="white"/>
<path d="M12.7627 21.5C10.9034 21.5 7.77074 21.5 5.79688 21.5C3.17355 21.5 1.04687 17.2466 1.04687 12C1.04687 6.75335 3.17355 2.5 5.79688 2.5C7.59245 2.5 9.51537 2.5 12.7627 2.5" stroke="white" stroke-width="2" stroke-miterlimit="10"/>
<path d="M12.7627 21.5C15.386 21.5 17.5127 17.2467 17.5127 12C17.5127 6.75329 15.386 2.5 12.7627 2.5C10.1393 2.5 8.0127 6.75329 8.0127 12C8.0127 17.2467 10.1393 21.5 12.7627 21.5Z" fill="white" stroke="white" stroke-width="2" stroke-miterlimit="10"/>
<mask id="path-4-outside-1" maskUnits="userSpaceOnUse" x="8.28906" y="0.5" width="32" height="23" fill="black">
<rect fill="white" x="8.28906" y="0.5" width="32" height="23"/>
<path fill-rule="evenodd" clip-rule="evenodd" d="M33.1339 21.5H26.1681C24.0324 21.5 22.2258 18.6809 21.628 14.8018L11.6899 14.8018C10.9131 14.8018 10.2891 13.541 10.2891 12.0002C10.2891 10.4593 10.9131 9.19854 11.6899 9.19854C11.7876 9.19854 12.1436 9.19784 12.6776 9.19677C14.6047 9.19294 18.8495 9.18449 21.6296 9.1881C22.229 5.31421 24.0342 2.5 26.1681 2.5L33.1339 2.5H33.1354C35.7587 2.5 37.8854 6.75329 37.8854 12C37.8854 17.2467 35.7587 21.5 33.1354 21.5H33.1339Z"/>
</mask>
<path fill-rule="evenodd" clip-rule="evenodd" d="M33.1339 21.5H26.1681C24.0324 21.5 22.2258 18.6809 21.628 14.8018L11.6899 14.8018C10.9131 14.8018 10.2891 13.541 10.2891 12.0002C10.2891 10.4593 10.9131 9.19854 11.6899 9.19854C11.7876 9.19854 12.1436 9.19784 12.6776 9.19677C14.6047 9.19294 18.8495 9.18449 21.6296 9.1881C22.229 5.31421 24.0342 2.5 26.1681 2.5L33.1339 2.5H33.1354C35.7587 2.5 37.8854 6.75329 37.8854 12C37.8854 17.2467 35.7587 21.5 33.1354 21.5H33.1339Z" fill="white"/>
<path d="M21.628 14.8018L23.6047 14.4971L23.3434 12.8018H21.628V14.8018ZM12.6776 9.19677L12.6736 7.19678H12.6736L12.6776 9.19677ZM21.6296 9.1881L21.627 11.1881L23.3436 11.1903L23.6061 9.49391L21.6296 9.1881ZM26.1681 23.5H33.1339V19.5H26.1681V23.5ZM19.6514 15.1064C19.9813 17.247 20.6599 19.2193 21.6574 20.7152C22.6292 22.1726 24.1466 23.5 26.1681 23.5V19.5C26.0538 19.5 25.6001 19.4179 24.9853 18.4959C24.3961 17.6124 23.8726 16.2357 23.6047 14.4971L19.6514 15.1064ZM21.628 12.8018L11.6899 12.8018V16.8018H21.628V12.8018ZM11.6899 12.8018C12.0704 12.8018 12.3285 12.9635 12.4369 13.0554C12.5321 13.1361 12.5318 13.1742 12.4881 13.0866C12.4002 12.9103 12.2891 12.528 12.2891 12.0002H8.28906C8.28906 13.0132 8.48988 14.0317 8.90819 14.871C9.26652 15.5899 10.1331 16.8018 11.6899 16.8018V12.8018ZM12.2891 12.0002C12.2891 11.4723 12.4002 11.09 12.4881 10.9137C12.5318 10.8261 12.5321 10.8642 12.4369 10.9449C12.3285 11.0368 12.0704 11.1985 11.6899 11.1985L11.6899 7.19854C10.1331 7.19854 9.26652 8.41042 8.90819 9.12934C8.48988 9.96857 8.28906 10.9871 8.28906 12.0002H12.2891ZM11.6899 11.1985C11.7902 11.1985 12.1495 11.1978 12.6815 11.1968L12.6736 7.19678C12.1377 7.19784 11.7849 7.19854 11.6899 7.19854L11.6899 11.1985ZM12.6815 11.1968C14.6098 11.1929 18.8509 11.1845 21.627 11.1881L21.6322 7.1881C18.8481 7.18449 14.5997 7.19295 12.6736 7.19678L12.6815 11.1968ZM26.1681 0.5C24.1484 0.5 22.6318 1.82522 21.66 3.28087C20.6628 4.77469 19.9839 6.74445 19.6531 8.8823L23.6061 9.49391C23.8747 7.75786 24.3981 6.38357 24.9868 5.50182C25.6009 4.58189 26.0539 4.5 26.1681 4.5V0.5ZM33.1339 0.5L26.1681 0.5V4.5L33.1339 4.5V0.5ZM33.1354 0.5H33.1339V4.5H33.1354V0.5ZM39.8854 12C39.8854 9.13348 39.3087 6.43946 38.283 4.38806C37.3171 2.45629 35.6127 0.5 33.1354 0.5V4.5C33.2814 4.5 33.952 4.67036 34.7053 6.17691C35.3987 7.56384 35.8854 9.61981 35.8854 12L39.8854 12ZM33.1354 23.5C35.6127 23.5 37.3171 21.5437 38.283 19.6119C39.3087 17.5605 39.8854 14.8665 39.8854 12L35.8854 12C35.8854 14.3802 35.3987 16.4362 34.7053 17.8231C33.952 19.3296 33.2814 19.5 33.1354 19.5V23.5ZM33.1339 23.5H33.1354V19.5H33.1339V23.5Z" fill="#835032" mask="url(#path-4-outside-1)"/>
</svg>
