<svg width="61" height="61" viewBox="0 0 61 61" fill="none" xmlns="http://www.w3.org/2000/svg">
<path d="M41.8221 14.9137C42.6032 14.1326 43.8695 14.1326 44.6505 14.9137L44.9296 15.1927C45.7106 15.9738 45.7106 17.2401 44.9296 18.0211L18.2222 44.7285L14.9142 44.9291L15.1148 41.621L41.8221 14.9137Z" fill="white"/>
<path d="M18.6369 14.9134C17.8558 14.1324 16.5895 14.1324 15.8084 14.9134L15.5294 15.1925C14.7484 15.9735 14.7484 17.2398 15.5294 18.0209L42.2367 44.7282L45.5448 44.9288L45.3442 41.6208L18.6369 14.9134Z" fill="white"/>
<path d="M16.0113 33.8941L15.9317 34.5055L16.4422 34.8513C17.4841 35.5569 18.5926 36.266 20.1217 36.7078C21.6486 37.149 23.5242 37.3054 26.1164 37.0414C28.5375 36.7948 30.4235 36.8866 32.0845 37.0359C32.4895 37.0723 32.8898 37.1134 33.2867 37.1541C34.4861 37.2771 35.6546 37.3969 36.8277 37.3759C38.41 37.3475 40.8832 37.0007 42.9875 36.3288C44.0363 35.9939 45.0598 35.5577 45.8436 34.9952C46.6094 34.4456 47.3304 33.6356 47.3418 32.5344C47.3483 31.8983 47.3424 31.2727 47.2829 30.7046C47.2239 30.1415 47.1062 29.5659 46.8478 29.0582C46.5763 28.5245 46.1565 28.0823 45.5515 27.8154C44.9723 27.5598 44.3026 27.4999 43.5737 27.5656C41.255 27.7744 39.3636 27.3712 37.2347 26.3721C35.0891 25.3651 33.7564 24.1168 32.7849 23.2067C32.5172 22.956 32.2769 22.7309 32.0546 22.5436C31.0929 21.7336 30.0513 21.2899 29.7129 21.1458C29.6865 21.1346 29.6644 21.1251 29.6469 21.1175C29.2313 20.936 28.8351 21.0399 28.6341 21.1103C28.3991 21.1926 28.1664 21.324 27.9461 21.4711C27.5003 21.769 26.9519 22.2359 26.2971 22.8779C25.7195 23.4442 24.5991 24.3365 23.5044 24.9751C22.9544 25.2959 22.4625 25.522 22.0817 25.6254C21.849 25.6887 21.7358 25.6864 21.6975 25.6831C21.2486 25.3377 20.8518 24.9806 20.5176 24.6798C20.4793 24.6453 20.4418 24.6116 20.4051 24.5787C20.236 24.4269 20.0528 24.2638 19.8997 24.1505C19.8344 24.1022 19.7001 24.0055 19.5337 23.9412C19.4534 23.9101 19.2723 23.8487 19.0408 23.8696C18.7552 23.8953 18.4548 24.0441 18.2651 24.3369L19.1044 24.8807L18.2651 24.3369C16.2842 27.3942 16.1609 30.6804 16.0861 32.6709C16.0675 33.167 16.0519 33.5826 16.0113 33.8941Z" fill="white" stroke="#976E40" stroke-width="2"/>
</svg>
