<svg width="34" height="28" viewBox="0 0 34 28" fill="none" xmlns="http://www.w3.org/2000/svg">
<path d="M7.62793 20.6097H31.4634C34.6003 20.6097 34.8944 16.5065 30.7912 14.8541C26.6881 13.2016 21.2966 11.6472 23.4672 5.4434C24.5035 2.51657 25.1897 0.5 25.1897 0.5H12.8267" fill="white"/>
<path d="M14.8581 20.6101C12.9535 20.6101 11.4131 22.1505 11.4131 24.0551C11.4131 25.9596 12.9535 27.5001 14.8581 27.5001C15.8103 27.5001 16.6646 27.122 17.2948 26.4918C17.9249 27.108 18.7792 27.5001 19.7314 27.5001C20.6977 27.5001 21.58 27.0939 22.1961 26.4498C22.8263 27.0939 23.6946 27.5001 24.6608 27.5001C25.6131 27.5001 26.4674 27.122 27.0835 26.4918C27.7137 27.108 28.5679 27.5001 29.5062 27.5001C31.4108 27.5001 32.9512 25.9596 32.9512 24.0551C32.9512 22.1505 31.4108 20.6101 29.5062 20.6101" fill="white"/>
<path d="M4.75112 2.32052C4.27498 6.25563 3.56078 11.3671 2.90259 16.1144C2.5665 18.4951 4.42903 20.6097 6.8237 20.6097L23.1122 21.1819C25.8799 21.1819 27.8645 16.6126 22.8798 14.2586C18.8799 12.3698 13.7977 11.7732 15.5622 5.4434C16.2204 3.11874 17.2847 0.5 17.2847 0.5H6.8237C5.77341 0.5 4.87715 1.28422 4.75112 2.32052Z" fill="#BAB0AA"/>
<path d="M6.83755 20.6091C4.93301 20.6091 3.39258 22.1496 3.39258 24.0541C3.39258 25.9586 4.93301 27.4991 6.83755 27.4991C7.78982 27.4991 8.64407 27.121 9.27425 26.4908C9.90442 27.107 10.7587 27.4991 11.7109 27.4991C12.6772 27.4991 13.5595 27.093 14.1756 26.4488C14.8058 27.093 15.6741 27.4991 16.6403 27.4991C17.5926 27.4991 18.4468 27.121 19.063 26.4908C19.6932 27.107 20.5474 27.4991 21.4857 27.4991C23.3902 27.4991 24.9307 25.9586 24.9307 24.0541C24.9307 22.1496 23.4335 20.6091 22.4181 20.6091" fill="#BBB1AD"/>
<path d="M2.41323 2.32052C1.93709 6.25563 1.22289 11.3671 0.564702 16.1144C0.228607 18.4951 2.09114 20.6097 4.48581 20.6097H21.2206C24.3574 20.6097 24.6515 16.5065 20.5484 14.8541C16.4452 13.2016 11.4598 11.7732 13.2243 5.4434C13.8825 3.11874 14.9468 0.5 14.9468 0.5H4.48581C3.43552 0.5 2.53926 1.28422 2.41323 2.32052Z" fill="white"/>
<path d="M4.49966 20.6088C2.59512 20.6088 1.05469 22.1492 1.05469 24.0537C1.05469 25.9583 2.59512 27.4987 4.49966 27.4987C5.45193 27.4987 6.30618 27.1206 6.93635 26.4904C7.56653 27.1066 8.42078 27.4987 9.37305 27.4987C10.3393 27.4987 11.2216 27.0926 11.8377 26.4484C12.4679 27.0926 13.3362 27.4987 14.3024 27.4987C15.2547 27.4987 16.109 27.1206 16.7251 26.4904C17.3553 27.1066 18.2096 27.4987 19.1478 27.4987C21.0524 27.4987 22.5928 25.9583 22.5928 24.0537C22.5928 22.1492 21.0524 20.6088 19.1478 20.6088" fill="white"/>
</svg>
