<svg width="43" height="35" viewBox="0 0 43 35" fill="none" xmlns="http://www.w3.org/2000/svg">
<mask id="path-1-outside-1" maskUnits="userSpaceOnUse" x="0.046875" y="0.0197754" width="43" height="34" fill="black">
<rect fill="white" x="0.046875" y="0.0197754" width="43" height="34"/>
<path fill-rule="evenodd" clip-rule="evenodd" d="M8.23069 17.9431C8.90418 13.0882 9.61154 7.98912 10.0941 4.00066C10.2313 2.87308 11.2065 2.01978 12.3493 2.01978H23.7317C23.7317 2.01978 22.5737 4.8692 21.8575 7.39864C20.0725 13.8022 24.6363 15.5956 28.8745 17.261C29.1948 17.3869 29.5131 17.512 29.8268 17.6383C34.2914 19.4363 33.9714 23.9009 30.5582 23.9009H12.3493C9.74366 23.9009 7.71706 21.6001 8.08277 19.0097C8.13182 18.6558 8.18117 18.3001 8.23069 17.9431ZM6.04564 32.0198C7.51693 32.0198 8.80263 31.2252 9.49702 30.0417H32.8437C33.5381 31.2252 34.8238 32.0198 36.295 32.0198C38.5035 32.0198 40.2938 30.2295 40.2938 28.021C40.2938 25.8125 38.5035 24.0222 36.295 24.0222C34.8238 24.0222 33.5381 24.8168 32.8437 26.0002H9.49695C8.80254 24.8168 7.51688 24.0222 6.04564 24.0222C3.83718 24.0222 2.04688 25.8125 2.04688 28.021C2.04688 30.2295 3.83718 32.0198 6.04564 32.0198Z"/>
</mask>
<path fill-rule="evenodd" clip-rule="evenodd" d="M8.23069 17.9431C8.90418 13.0882 9.61154 7.98912 10.0941 4.00066C10.2313 2.87308 11.2065 2.01978 12.3493 2.01978H23.7317C23.7317 2.01978 22.5737 4.8692 21.8575 7.39864C20.0725 13.8022 24.6363 15.5956 28.8745 17.261C29.1948 17.3869 29.5131 17.512 29.8268 17.6383C34.2914 19.4363 33.9714 23.9009 30.5582 23.9009H12.3493C9.74366 23.9009 7.71706 21.6001 8.08277 19.0097C8.13182 18.6558 8.18117 18.3001 8.23069 17.9431ZM6.04564 32.0198C7.51693 32.0198 8.80263 31.2252 9.49702 30.0417H32.8437C33.5381 31.2252 34.8238 32.0198 36.295 32.0198C38.5035 32.0198 40.2938 30.2295 40.2938 28.021C40.2938 25.8125 38.5035 24.0222 36.295 24.0222C34.8238 24.0222 33.5381 24.8168 32.8437 26.0002H9.49695C8.80254 24.8168 7.51688 24.0222 6.04564 24.0222C3.83718 24.0222 2.04688 25.8125 2.04688 28.021C2.04688 30.2295 3.83718 32.0198 6.04564 32.0198Z" fill="white"/>
<path d="M10.0941 4.00066L8.10875 3.7592L8.10861 3.76042L10.0941 4.00066ZM8.23069 17.9431L6.24966 17.6683V17.6683L8.23069 17.9431ZM23.7317 2.01978L25.5846 2.7728L26.7034 0.0197754H23.7317V2.01978ZM21.8575 7.39864L19.9332 6.85379L19.931 6.86159L21.8575 7.39864ZM28.8745 17.261L29.606 15.3996L29.606 15.3996L28.8745 17.261ZM29.8268 17.6383L29.0796 19.4935L29.0796 19.4935L29.8268 17.6383ZM8.08277 19.0097L10.0631 19.2892L10.0638 19.2843L8.08277 19.0097ZM9.49702 30.0417V28.0417H8.35166L7.77203 29.0296L9.49702 30.0417ZM32.8437 30.0417L34.5687 29.0296L33.989 28.0417H32.8437V30.0417ZM32.8437 26.0002V28.0002H33.9891L34.5687 27.0124L32.8437 26.0002ZM9.49695 26.0002L7.77199 27.0124L8.35163 28.0002H9.49695V26.0002ZM8.10861 3.76042C7.62856 7.72782 6.92395 12.8076 6.24966 17.6683L10.2117 18.2179C10.8844 13.3688 11.5945 8.25042 12.0796 4.2409L8.10861 3.76042ZM12.3493 0.0197754C10.2121 0.0197754 8.37 1.61118 8.10875 3.7592L12.0795 4.24212C12.0858 4.19034 12.1112 4.13677 12.1636 4.09077C12.2165 4.04435 12.2815 4.01978 12.3493 4.01978V0.0197754ZM23.7317 0.0197754H12.3493V4.01978H23.7317V0.0197754ZM23.7819 7.94349C24.1198 6.74998 24.5686 5.45973 24.9398 4.45224C25.1241 3.95211 25.2866 3.52906 25.4026 3.23207C25.4605 3.08369 25.5068 2.96709 25.5381 2.88844C25.5538 2.84912 25.5658 2.81931 25.5737 2.79977C25.5776 2.79 25.5805 2.78281 25.5824 2.77828C25.5833 2.77601 25.5839 2.77442 25.5843 2.7735C25.5845 2.77304 25.5846 2.77275 25.5846 2.77263C25.5847 2.77257 25.5847 2.77256 25.5847 2.77259C25.5847 2.7726 25.5846 2.77265 25.5846 2.77266C25.5846 2.77272 25.5846 2.7728 23.7317 2.01978C21.8789 1.26676 21.8789 1.26685 21.8788 1.26696C21.8788 1.26701 21.8788 1.26713 21.8787 1.26723C21.8787 1.26743 21.8786 1.26767 21.8784 1.26796C21.8782 1.26853 21.8779 1.26928 21.8775 1.2702C21.8768 1.27204 21.8758 1.27457 21.8745 1.27778C21.8719 1.28418 21.8682 1.2933 21.8635 1.30502C21.854 1.32846 21.8404 1.36233 21.823 1.40587C21.7883 1.49292 21.7384 1.6187 21.6766 1.77698C21.5531 2.09329 21.3813 2.54069 21.1866 3.0691C20.7998 4.11868 20.3114 5.51786 19.9332 6.85379L23.7819 7.94349ZM29.606 15.3996C27.3766 14.5235 25.6189 13.7969 24.526 12.697C24.0333 12.201 23.7081 11.6524 23.5573 10.9734C23.4023 10.2752 23.4025 9.30438 23.7841 7.93568L19.931 6.86159C19.42 8.69466 19.3213 10.3493 19.6524 11.8404C19.9877 13.3507 20.7336 14.5552 21.6885 15.5163C23.4909 17.3303 26.1342 18.3331 28.1431 19.1225L29.606 15.3996ZM30.5739 15.7831C30.2511 15.6531 29.9248 15.5249 29.606 15.3996L28.1431 19.1225C28.4647 19.2488 28.7751 19.3709 29.0796 19.4935L30.5739 15.7831ZM30.5582 25.9009C31.8593 25.9009 33.0626 25.4654 33.9361 24.5792C34.8041 23.6985 35.1898 22.5293 35.1452 21.3672C35.0557 19.0335 33.3257 16.8913 30.5739 15.7831L29.0796 19.4935C30.7924 20.1833 31.1348 21.1724 31.1481 21.5205C31.155 21.6994 31.0998 21.7586 31.0873 21.7713C31.0803 21.7784 30.9637 21.9009 30.5582 21.9009V25.9009ZM12.3493 25.9009H30.5582V21.9009H12.3493V25.9009ZM6.1024 18.7301C5.56473 22.5386 8.54237 25.9009 12.3493 25.9009V21.9009C10.9449 21.9009 9.8694 20.6615 10.0631 19.2892L6.1024 18.7301ZM6.24966 17.6683C6.20014 18.0253 6.15078 18.3811 6.10171 18.735L10.0638 19.2843C10.1129 18.9306 10.1622 18.575 10.2117 18.2179L6.24966 17.6683ZM7.77203 29.0296C7.42188 29.6264 6.77859 30.0198 6.04564 30.0198V34.0198C8.25527 34.0198 10.1834 32.824 11.222 31.0538L7.77203 29.0296ZM32.8437 28.0417H9.49702V32.0417H32.8437V28.0417ZM36.295 30.0198C35.5621 30.0198 34.9188 29.6264 34.5687 29.0296L31.1187 31.0538C32.1573 32.824 34.0854 34.0198 36.295 34.0198V30.0198ZM38.2938 28.021C38.2938 29.1249 37.3989 30.0198 36.295 30.0198V34.0198C39.6081 34.0198 42.2938 31.334 42.2938 28.021H38.2938ZM36.295 26.0222C37.3989 26.0222 38.2938 26.9171 38.2938 28.021H42.2938C42.2938 24.708 39.6081 22.0222 36.295 22.0222V26.0222ZM34.5687 27.0124C34.9189 26.4156 35.5621 26.0222 36.295 26.0222V22.0222C34.0855 22.0222 32.1574 23.2179 31.1188 24.988L34.5687 27.0124ZM9.49695 28.0002H32.8437V24.0002H9.49695V28.0002ZM6.04564 26.0222C6.77857 26.0222 7.42183 26.4156 7.77199 27.0124L11.2219 24.988C10.1833 23.2179 8.25519 22.0222 6.04564 22.0222V26.0222ZM4.04688 28.021C4.04688 26.9171 4.94175 26.0222 6.04564 26.0222V22.0222C2.73261 22.0222 0.046875 24.708 0.046875 28.021H4.04688ZM6.04564 30.0198C4.94175 30.0198 4.04688 29.1249 4.04688 28.021H0.046875C0.046875 31.334 2.73261 34.0198 6.04564 34.0198V30.0198Z" fill="#A68B7A" mask="url(#path-1-outside-1)"/>
</svg>
