<svg width="266" height="14" viewBox="0 0 266 14"  fill="none" xmlns="http://www.w3.org/2000/svg">
<path d="M0.0615234 13L3.42752 0.400016H7.08152L13.5795 8.73402L24.8835 0.400016H28.5375L25.1535 13H21.4995L23.6415 5.04402L14.7315 11.488H11.7075L6.05552 4.25202L3.71552 13H0.0615234Z" fill="white"/>
<path d="M29.9092 13L33.2752 0.400016H52.2472L51.5812 2.88402H36.1192L35.4712 5.31402H49.5472L48.8812 7.79802H34.8052L34.0672 10.516H49.6552L49.0072 13H29.9092Z" fill="white"/>
<path d="M52.6025 13L55.9685 0.400016H59.6225L56.9945 10.246H69.6845L68.9465 13H52.6025Z" fill="white"/>
<path d="M72.2197 13L75.5857 0.400016H79.2397L75.8737 13H72.2197Z" fill="white"/>
<path d="M80.6045 13L83.9705 0.400016H87.6245L86.1125 6.03402L98.4605 0.400016H104.688L91.8185 6.30402L102.078 13H96.4445L88.4165 7.85202L85.2485 9.31002L84.2585 13H80.6045Z" fill="white"/>
<path d="M113.844 13.234C110.424 13.234 107.88 12.742 106.212 11.758C104.556 10.774 103.728 9.38202 103.728 7.58202C103.728 6.14202 104.244 4.86402 105.276 3.74802C106.308 2.63202 107.814 1.75602 109.794 1.12002C111.786 0.484016 114.21 0.166016 117.066 0.166016C120.45 0.166016 122.982 0.664016 124.662 1.66002C126.354 2.64402 127.2 4.04802 127.2 5.87202C127.2 6.89202 126.9 7.84602 126.3 8.73402C125.712 9.62202 124.848 10.402 123.708 11.074C122.568 11.746 121.17 12.274 119.514 12.658C117.858 13.042 115.968 13.234 113.844 13.234ZM114.258 10.48C116.25 10.48 117.924 10.288 119.28 9.90402C120.636 9.50802 121.656 8.98002 122.34 8.32002C123.036 7.66002 123.384 6.92202 123.384 6.10602C123.384 5.41002 123.168 4.82802 122.736 4.36002C122.304 3.88002 121.596 3.52002 120.612 3.28002C119.64 3.04002 118.32 2.92002 116.652 2.92002C114.66 2.92002 112.986 3.12402 111.63 3.53202C110.274 3.92802 109.248 4.46202 108.552 5.13402C107.868 5.80602 107.526 6.55002 107.526 7.36602C107.526 8.03802 107.736 8.60802 108.156 9.07602C108.576 9.54402 109.278 9.89802 110.262 10.138C111.246 10.366 112.578 10.48 114.258 10.48Z" fill="white"/>
<path d="M132.72 0.400016L137.436 9.99402L147.336 0.400016H151.8L138.768 13H135.006L128.724 0.400016H132.72Z" fill="white"/>
<path d="M150.184 13L150.994 9.95802H154.846L154.018 13H150.184ZM152.29 6.17802L153.1 3.13602H156.952L156.124 6.17802H152.29Z" fill="white"/>
<path d="M165.243 13L167.871 3.15402H159.321L160.059 0.400016H180.813L180.075 3.15402H171.525L168.879 13H165.243Z" fill="white"/>
<path d="M180.36 13L183.726 0.400016H202.698L202.032 2.88402H186.57L185.922 5.31402H199.998L199.332 7.79802H185.256L184.518 10.516H200.106L199.458 13H180.36Z" fill="white"/>
<path d="M221.054 13L219.722 10.48H207.878L205.196 13H200.714L214.358 0.400016H218.12L225.032 13H221.054ZM210.56 7.96002H218.39L215.798 3.02802L210.56 7.96002Z" fill="white"/>
<path d="M227.452 13L230.818 0.400016H234.472L240.97 8.73402L252.274 0.400016H255.928L252.544 13H248.89L251.032 5.04402L242.122 11.488H239.098L233.446 4.25202L231.106 13H227.452Z" fill="white"/>
</svg>
